<mxfile host="app.diagrams.net" modified="2023-11-10T13:54:18.323Z" agent="Mozilla/5.0 (Windows NT 10.0; Win64; x64) AppleWebKit/537.36 (KHTML, like Gecko) Chrome/119.0.0.0 Safari/537.36" etag="cT6yi0piFwkqnxkWh1nn" version="22.1.0" type="device">
  <diagram name="Страница — 1" id="nFLk3jnH2Kj02EvxrJm-">
    <mxGraphModel dx="2022" dy="1834" grid="1" gridSize="10" guides="1" tooltips="1" connect="1" arrows="1" fold="1" page="1" pageScale="1" pageWidth="827" pageHeight="1169" math="0" shadow="0">
      <root>
        <mxCell id="0" />
        <mxCell id="1" parent="0" />
        <mxCell id="UyTcibLwogBtFu6U8jmR-4" value="" style="edgeStyle=orthogonalEdgeStyle;rounded=0;orthogonalLoop=1;jettySize=auto;html=1;" edge="1" parent="1" source="UyTcibLwogBtFu6U8jmR-1" target="UyTcibLwogBtFu6U8jmR-2">
          <mxGeometry relative="1" as="geometry" />
        </mxCell>
        <mxCell id="UyTcibLwogBtFu6U8jmR-7" style="edgeStyle=orthogonalEdgeStyle;rounded=0;orthogonalLoop=1;jettySize=auto;html=1;exitX=1;exitY=0.5;exitDx=0;exitDy=0;entryX=0;entryY=0.5;entryDx=0;entryDy=0;" edge="1" parent="1" source="UyTcibLwogBtFu6U8jmR-1" target="UyTcibLwogBtFu6U8jmR-6">
          <mxGeometry relative="1" as="geometry" />
        </mxCell>
        <mxCell id="UyTcibLwogBtFu6U8jmR-10" style="edgeStyle=orthogonalEdgeStyle;rounded=0;orthogonalLoop=1;jettySize=auto;html=1;exitX=1;exitY=0.5;exitDx=0;exitDy=0;entryX=0;entryY=0.5;entryDx=0;entryDy=0;" edge="1" parent="1" source="UyTcibLwogBtFu6U8jmR-1" target="UyTcibLwogBtFu6U8jmR-9">
          <mxGeometry relative="1" as="geometry" />
        </mxCell>
        <mxCell id="UyTcibLwogBtFu6U8jmR-12" style="edgeStyle=orthogonalEdgeStyle;rounded=0;orthogonalLoop=1;jettySize=auto;html=1;exitX=1;exitY=0.5;exitDx=0;exitDy=0;entryX=0;entryY=0.5;entryDx=0;entryDy=0;" edge="1" parent="1" source="UyTcibLwogBtFu6U8jmR-1" target="UyTcibLwogBtFu6U8jmR-11">
          <mxGeometry relative="1" as="geometry" />
        </mxCell>
        <mxCell id="UyTcibLwogBtFu6U8jmR-1" value="1. Заполнение данных" style="rounded=0;whiteSpace=wrap;html=1;" vertex="1" parent="1">
          <mxGeometry x="20" y="40" width="210" height="60" as="geometry" />
        </mxCell>
        <mxCell id="UyTcibLwogBtFu6U8jmR-5" value="" style="edgeStyle=orthogonalEdgeStyle;rounded=0;orthogonalLoop=1;jettySize=auto;html=1;entryX=0.5;entryY=0;entryDx=0;entryDy=0;" edge="1" parent="1" source="UyTcibLwogBtFu6U8jmR-2" target="UyTcibLwogBtFu6U8jmR-3">
          <mxGeometry relative="1" as="geometry" />
        </mxCell>
        <mxCell id="UyTcibLwogBtFu6U8jmR-2" value="2. Приход на склад" style="rounded=0;whiteSpace=wrap;html=1;" vertex="1" parent="1">
          <mxGeometry x="20" y="130" width="210" height="60" as="geometry" />
        </mxCell>
        <mxCell id="UyTcibLwogBtFu6U8jmR-25" style="edgeStyle=orthogonalEdgeStyle;rounded=0;orthogonalLoop=1;jettySize=auto;html=1;exitX=1;exitY=0.5;exitDx=0;exitDy=0;entryX=0.5;entryY=1;entryDx=0;entryDy=0;" edge="1" parent="1" source="UyTcibLwogBtFu6U8jmR-3" target="UyTcibLwogBtFu6U8jmR-23">
          <mxGeometry relative="1" as="geometry" />
        </mxCell>
        <mxCell id="UyTcibLwogBtFu6U8jmR-3" value="3. Оператор выбирает инструмент" style="rounded=0;whiteSpace=wrap;html=1;" vertex="1" parent="1">
          <mxGeometry x="20" y="230" width="210" height="60" as="geometry" />
        </mxCell>
        <mxCell id="UyTcibLwogBtFu6U8jmR-13" style="edgeStyle=orthogonalEdgeStyle;rounded=0;orthogonalLoop=1;jettySize=auto;html=1;exitX=1;exitY=0.5;exitDx=0;exitDy=0;" edge="1" parent="1" source="UyTcibLwogBtFu6U8jmR-6" target="UyTcibLwogBtFu6U8jmR-17">
          <mxGeometry relative="1" as="geometry">
            <mxPoint x="510" y="-99.83333333333326" as="targetPoint" />
          </mxGeometry>
        </mxCell>
        <mxCell id="UyTcibLwogBtFu6U8jmR-6" value="Пластины" style="rounded=0;whiteSpace=wrap;html=1;" vertex="1" parent="1">
          <mxGeometry x="320" y="-130" width="120" height="60" as="geometry" />
        </mxCell>
        <mxCell id="UyTcibLwogBtFu6U8jmR-19" style="edgeStyle=orthogonalEdgeStyle;rounded=0;orthogonalLoop=1;jettySize=auto;html=1;exitX=1;exitY=0.5;exitDx=0;exitDy=0;entryX=0;entryY=0.5;entryDx=0;entryDy=0;" edge="1" parent="1" source="UyTcibLwogBtFu6U8jmR-9" target="UyTcibLwogBtFu6U8jmR-18">
          <mxGeometry relative="1" as="geometry" />
        </mxCell>
        <mxCell id="UyTcibLwogBtFu6U8jmR-9" value="Сверла" style="rounded=0;whiteSpace=wrap;html=1;" vertex="1" parent="1">
          <mxGeometry x="320" y="-40" width="120" height="60" as="geometry" />
        </mxCell>
        <mxCell id="UyTcibLwogBtFu6U8jmR-20" style="edgeStyle=orthogonalEdgeStyle;rounded=0;orthogonalLoop=1;jettySize=auto;html=1;exitX=1;exitY=0.5;exitDx=0;exitDy=0;" edge="1" parent="1" source="UyTcibLwogBtFu6U8jmR-11" target="UyTcibLwogBtFu6U8jmR-21">
          <mxGeometry relative="1" as="geometry">
            <mxPoint x="520" y="99.99999999999977" as="targetPoint" />
          </mxGeometry>
        </mxCell>
        <mxCell id="UyTcibLwogBtFu6U8jmR-11" value="Резцы" style="rounded=0;whiteSpace=wrap;html=1;" vertex="1" parent="1">
          <mxGeometry x="320" y="40" width="120" height="60" as="geometry" />
        </mxCell>
        <mxCell id="UyTcibLwogBtFu6U8jmR-17" value="1. Радиус&amp;nbsp;&lt;br&gt;&lt;div style=&quot;text-align: left;&quot;&gt;&lt;span style=&quot;background-color: initial;&quot;&gt;2.Шаг&lt;/span&gt;&lt;/div&gt;" style="rounded=0;whiteSpace=wrap;html=1;" vertex="1" parent="1">
          <mxGeometry x="520" y="-130" width="120" height="60" as="geometry" />
        </mxCell>
        <mxCell id="UyTcibLwogBtFu6U8jmR-18" value="1. Габариты&lt;br&gt;2.&amp;nbsp;Диаметр" style="rounded=0;whiteSpace=wrap;html=1;" vertex="1" parent="1">
          <mxGeometry x="520" y="-40" width="120" height="60" as="geometry" />
        </mxCell>
        <mxCell id="UyTcibLwogBtFu6U8jmR-21" value="1.Вылет" style="rounded=0;whiteSpace=wrap;html=1;" vertex="1" parent="1">
          <mxGeometry x="520" y="39.99999999999977" width="120" height="60" as="geometry" />
        </mxCell>
        <mxCell id="UyTcibLwogBtFu6U8jmR-26" style="edgeStyle=orthogonalEdgeStyle;rounded=0;orthogonalLoop=1;jettySize=auto;html=1;exitX=0.5;exitY=0;exitDx=0;exitDy=0;entryX=1;entryY=0.5;entryDx=0;entryDy=0;" edge="1" parent="1" source="UyTcibLwogBtFu6U8jmR-23" target="UyTcibLwogBtFu6U8jmR-2">
          <mxGeometry relative="1" as="geometry" />
        </mxCell>
        <mxCell id="UyTcibLwogBtFu6U8jmR-23" value="Видит только те что есть на складе" style="rounded=0;whiteSpace=wrap;html=1;" vertex="1" parent="1">
          <mxGeometry x="281" y="180" width="266" height="60" as="geometry" />
        </mxCell>
        <mxCell id="UyTcibLwogBtFu6U8jmR-29" style="edgeStyle=orthogonalEdgeStyle;rounded=0;orthogonalLoop=1;jettySize=auto;html=1;entryX=0;entryY=0.5;entryDx=0;entryDy=0;" edge="1" parent="1" source="UyTcibLwogBtFu6U8jmR-28" target="UyTcibLwogBtFu6U8jmR-1">
          <mxGeometry relative="1" as="geometry" />
        </mxCell>
        <mxCell id="UyTcibLwogBtFu6U8jmR-28" value="Интерфейс Хохлова" style="rounded=0;whiteSpace=wrap;html=1;" vertex="1" parent="1">
          <mxGeometry x="-200" y="40" width="150" height="60" as="geometry" />
        </mxCell>
      </root>
    </mxGraphModel>
  </diagram>
</mxfile>
